<svg width="28" height="34" viewBox="0 0 28 34" fill="none" xmlns="http://www.w3.org/2000/svg">
<path d="M20.7486 7.615H7.41357C7.41357 4.969 7.41371 1 14.5256 1C20.7486 1 20.7486 5.6305 20.7486 7.615Z" stroke="#A2CC01" stroke-width="2"/>
<path d="M3.09933 6.29201L0.746094 32.932H27.4161L25.0629 6.29201H3.09933Z" fill="#A2CC01"/>
<path d="M8.59021 6.292L19.572 6.29199M0.746094 32.932L3.09933 6.29201H25.0629L27.4161 32.932H0.746094Z" stroke="#CBE372" stroke-linejoin="round"/>
<path d="M12 24.5V15.5C12 15.2239 12.2239 15 12.5 15H15.5C15.7761 15 16 15.2239 16 15.5V24.5C16 24.7761 15.7761 25 15.5 25H12.5C12.2239 25 12 24.7761 12 24.5Z" stroke="white"/>
<rect x="6.58459" y="7.17401" width="2.2225" height="1.764" fill="white"/>
<rect x="19.9196" y="7.17401" width="2.2225" height="1.764" fill="white"/>
</svg>
