<svg width="20" height="20" viewBox="0 0 20 20" fill="none" xmlns="http://www.w3.org/2000/svg">
<circle cx="10" cy="10" r="10" fill="white"/>
<path d="M15.5256 11.5538C15.7851 11.6268 15.9345 11.9012 15.8302 12.1498C15.4262 13.1127 14.7473 13.9553 13.8644 14.5816C12.8429 15.3063 11.6019 15.7032 10.3236 15.7141C9.0453 15.7249 7.79697 15.3491 6.76174 14.6418C5.86715 14.0306 5.17238 13.1997 4.7501 12.2438C4.64109 11.9971 4.78563 11.7198 5.044 11.6423V11.6423C5.2903 11.5685 5.54851 11.7045 5.65482 11.9386C6.01102 12.7231 6.58688 13.4051 7.32457 13.9091C8.19372 14.5029 9.24177 14.8184 10.315 14.8093C11.3882 14.8002 12.4301 14.467 13.2877 13.8586C14.0153 13.3424 14.5779 12.6513 14.9191 11.8614C15.0213 11.6249 15.2776 11.484 15.5256 11.5538V11.5538Z" fill="#FF9F24"/>
<path d="M8.82483 9.42856C9.00044 9.42856 9.14579 9.28499 9.1134 9.11239C9.05015 8.77532 8.88665 8.46233 8.6407 8.21638C8.31921 7.89489 7.88318 7.71428 7.42852 7.71428C6.97386 7.71428 6.53783 7.89489 6.21634 8.21638C5.97039 8.46233 5.80689 8.77532 5.74363 9.11239C5.71124 9.28499 5.8566 9.42856 6.03221 9.42856V9.42856C6.20783 9.42856 6.34569 9.2832 6.39673 9.11517C6.44778 8.94713 6.53958 8.79252 6.66602 8.66607C6.86825 8.46384 7.14253 8.35024 7.42852 8.35024C7.71451 8.35024 7.98879 8.46384 8.19101 8.66607C8.31746 8.79252 8.40926 8.94713 8.4603 9.11517C8.51135 9.2832 8.64921 9.42856 8.82483 9.42856V9.42856Z" fill="#FF9F24"/>
<path d="M14.5392 9.42856C14.7148 9.42856 14.8601 9.28499 14.8278 9.11239C14.7645 8.77532 14.601 8.46233 14.3551 8.21638C14.0336 7.89489 13.5975 7.71428 13.1429 7.71428C12.6882 7.71428 12.2522 7.89489 11.9307 8.21638C11.6847 8.46233 11.5212 8.77532 11.458 9.11239C11.4256 9.28499 11.571 9.42856 11.7466 9.42856V9.42856C11.9222 9.42856 12.06 9.2832 12.1111 9.11517C12.1621 8.94713 12.2539 8.79252 12.3804 8.66607C12.5826 8.46384 12.8569 8.35024 13.1429 8.35024C13.4289 8.35024 13.7031 8.46384 13.9054 8.66607C14.0318 8.79252 14.1236 8.94713 14.1747 9.11517C14.2257 9.2832 14.3636 9.42856 14.5392 9.42856V9.42856Z" fill="#FF9F24"/>
</svg>
