<svg width="25" height="25" viewBox="0 0 25 25" fill="none" xmlns="http://www.w3.org/2000/svg">
<circle cx="12.5" cy="12.5" r="12.5" fill="#949494"/>
<path d="M13.1945 14.3889V22.4167C13.1945 22.6928 12.9706 22.9167 12.6945 22.9167H10.9167C10.6405 22.9167 10.4167 22.6928 10.4167 22.4167V14.3889C10.4167 14.1127 10.1928 13.8889 9.91668 13.8889H7.44446C7.16832 13.8889 6.94446 13.665 6.94446 13.3889V11.6111C6.94446 11.335 7.16832 11.1111 7.44446 11.1111H9.91668C10.1928 11.1111 10.4167 10.887 10.415 10.6109C10.3826 5.548 9.97399 3.70086 16.9009 4.25611C17.1586 4.27677 17.3613 4.49356 17.3613 4.75216V6.57333C17.3613 6.84947 17.1355 7.07365 16.8595 7.06794C13.936 7.00741 13.2452 6.53186 13.1972 10.6091C13.194 10.8852 13.4183 11.1111 13.6945 11.1111H16.1667C16.4428 11.1111 16.6667 11.335 16.6667 11.6111V13.3889C16.6667 13.665 16.4428 13.8889 16.1667 13.8889H13.6945C13.4183 13.8889 13.1945 14.1127 13.1945 14.3889Z" fill="white" stroke="white" stroke-width="0.5"/>
</svg>
