<svg width="25" height="25" viewBox="0 0 25 25" fill="none" xmlns="http://www.w3.org/2000/svg">
<circle cx="12.5" cy="12.5" r="12.5" fill="#949494"/>
<path d="M18.4699 9.98834C18.9779 11.1542 16.9119 22.1504 7.0691 17.731C9.40673 17.6993 10.9259 16.299 10.9259 16.299C9.99946 16.0357 8.95275 15.9809 8.50063 14.4004L9.66945 14.3846C8.48941 13.5727 7.55732 12.8956 7.53675 11.3782L8.71118 11.7762C6.6587 10.1484 7.79666 7.85656 7.79666 7.85656C10.2304 10.3759 11.9566 10.6285 13.2484 10.611C13.1821 5.7141 17.3858 7.17476 17.7046 7.99822C18.8081 7.70733 18.439 7.71233 19.2956 7.35582C19.1223 8.18597 18.4549 8.88484 18.4549 8.88484L19.6806 8.52332C19.3236 9.42493 18.8352 9.70748 18.4699 9.98834Z" fill="white" stroke="white"/>
</svg>
