<svg width="203" height="184" viewBox="0 0 203 184" fill="none" xmlns="http://www.w3.org/2000/svg">
<path d="M0.5 87L137.15 35.5L173.5 87H0.5Z" fill="#60676D"/>
<path d="M0 87H26L11 100L0 87Z" fill="#080705"/>
<path d="M26 87H72L94 97L32.5 117.5L11 100L26 87Z" fill="#DBDBDB"/>
<path d="M82.5 38.5L137.15 35.5L59 65L82.5 38.5Z" fill="#373E44"/>
<path d="M112.5 0L137.15 35.5L106 37.2055L112.5 0Z" fill="#A7A7A7"/>
<path d="M112.5 0L152.5 28.5L150 54L112.5 0Z" fill="#080705"/>
<path d="M150 54L171.5 50.5L173.5 87L150 54Z" fill="#0C0C0C"/>
<path d="M152.5 28.5L190.5 47.5L150 54L152.5 28.5Z" fill="#383D41"/>
<path d="M171.5 51L200 87H173.5L171.5 51Z" fill="#373E44"/>
<path d="M171.5 51L203 65.7432L197 83.2432L171.5 51Z" fill="#646B71"/>
<path d="M71.8311 87H173L94 97L71.8311 87Z" fill="#686B70"/>
<path d="M38 115.5L93.5 97L173 87L45 120L38 115.5Z" fill="#C4C4C4"/>
<path d="M74 112.5L173 87L58.5 155.5L74 112.5Z" fill="#60676D"/>
<path d="M81 142L173 87L65 184L81 142Z" fill="#3A3D42"/>
<path d="M173 87H200L96 156L173 87Z" fill="#5E656B"/>
<path d="M98 154.5L136.5 129L122.5 174L98 154.5Z" fill="#3A3D42"/>
<path d="M171 106L167 156L136.5 129L171 106Z" fill="#3A3D42"/>
<path d="M171 106L200 87L188 126L171 106Z" fill="#3A3D42"/>
</svg>
