<svg width="203" height="184" viewBox="0 0 203 184" fill="none" xmlns="http://www.w3.org/2000/svg">
<path d="M202.5 87L65.85 35.5L29.5 87H202.5Z" fill="#60676D"/>
<path d="M203 87H177L192 100L203 87Z" fill="#080705"/>
<path d="M177 87H131L109 97L170.5 117.5L192 100L177 87Z" fill="#DBDBDB"/>
<path d="M120.5 38.5L65.85 35.5L144 65L120.5 38.5Z" fill="#373E44"/>
<path d="M90.5 0L65.85 35.5L97 37.2055L90.5 0Z" fill="#A7A7A7"/>
<path d="M90.5 0L50.5 28.5L53 54L90.5 0Z" fill="#080705"/>
<path d="M53 54L31.5 50.5L29.5 87L53 54Z" fill="#0C0C0C"/>
<path d="M50.5 28.5L12.5 47.5L53 54L50.5 28.5Z" fill="#383D41"/>
<path d="M31.5 51L3 87H29.5L31.5 51Z" fill="#373E44"/>
<path d="M31.5 51L0 65.7432L6 83.2432L31.5 51Z" fill="#646B71"/>
<path d="M131.169 87H29.9999L109 97L131.169 87Z" fill="#686B70"/>
<path d="M165 115.5L109.5 97L30 87L158 120L165 115.5Z" fill="#C4C4C4"/>
<path d="M129 112.5L30 87L144.5 155.5L129 112.5Z" fill="#60676D"/>
<path d="M122 142L30 87L138 184L122 142Z" fill="#3A3D42"/>
<path d="M30 87H3L107 156L30 87Z" fill="#5E656B"/>
<path d="M105 154.5L66.5 129L80.5 174L105 154.5Z" fill="#3A3D42"/>
<path d="M32 106L36 156L66.5 129L32 106Z" fill="#3A3D42"/>
<path d="M32 106L3 87L15 126L32 106Z" fill="#3A3D42"/>
</svg>
